{"title":"Police Story 2013 ENG DUB HDRIP x264 AC3 TiTAN","uid":9697422,"size":1281955175,"categoryP":"video","categoryS":"movies","magnet":"?xt=urn:btih:f37838d65eb34e9b06748e450844aea6e8754286&amp;dn=Police+Story+2013+ENG+DUB+HDRIP+x264+AC3+TiTAN&amp;tr=udp%3A%2F%2Ftracker.openbittorrent.com%3A80&amp;tr=udp%3A%2F%2Fopen.demonii.com%3A1337&amp;tr=udp%3A%2F%2Ftracker.coppersurfer.tk%3A6969&amp;tr=udp%3A%2F%2Fexodus.desync.com%3A6969","seeders":4,"leechers":0,"uploader":".BONE.","files":3,"time":1393955095,"description":"\nA man looking for the release of a long-time prisoner takes a police officer, his daughter, and a group of strangers hostage. \n &lt;a href=&quot;\nhttp://www.imdb.com/title/tt2599716/&quot; rel=&quot;nofollow&quot; target=&quot;_NEW&quot;&gt;\nhttp://www.imdb.com/title/tt2599716/&lt;/a&gt;\n\nSource: KingStoner THX\n\n\nGeneral\n\nFormat : Matroska\nFormat version : Version 2\nFile size : 1.19 GiB\nDuration : 1h 45mn\nOverall bit rate mode : Variable\nOverall bit rate : 1 620 Kbps\nEncoded date : UTC 2014-03-04 22:47:25\nWriting application : mkvmerge v6.7.0 ('Back to the Ground') 32bit built on Jan 8 2014 15:03:17\nWriting library : libebml v1.3.0 + libmatroska v1.4.1\n\nVideo\nID : 1\nFormat : AVC\nFormat/Info : Advanced Video Codec\nFormat profile : &lt;a class=&quot;__cf_email__&quot; href=&quot;/cdn-cgi/l/email-protection&quot; data-cfemail=&quot;155d7c727d5559213b24&quot;&gt;[email&amp;#160;protected]&lt;/a&gt;&lt;script cf-hash='f9e31' type=&quot;text/javascript&quot;&gt;\n/* &lt;![CDATA[ */!function(){try{var t=&quot;currentScript&quot;in document?document.currentScript:function(){for(var t=document.getElementsByTagName(&quot;script&quot;),e=t.length;e--;)if(t[e].getAttribute(&quot;cf-hash&quot;))return t[e]}();if(t&amp;&amp;t.previousSibling){var e,r,n,i,c=t.previousSibling,a=c.getAttribute(&quot;data-cfemail&quot;);if(a){for(e=&quot;&quot;,r=parseInt(a.substr(0,2),16),n=2;a.length-n;n+=2)i=parseInt(a.substr(n,2),16)^r,e+=String.fromCharCode(i);e=document.createTextNode(e),c.parentNode.replaceChild(e,c)}}}catch(u){}}();/* ]]&gt; */&lt;/script&gt;\nFormat settings, CABAC : Yes\nFormat settings, ReFrames : 3 frames\nCodec ID : V_MPEG4/ISO/AVC\nDuration : 1h 45mn\nBit rate mode : Variable\nBit rate : 1 396 Kbps\nMaximum bit rate : 40.0 Mbps\nWidth : 720 pixels\nHeight : 320 pixels\nDisplay aspect ratio : 2.25:1\nFrame rate mode : Constant\nFrame rate : 25.000 fps\nColor space : YUV\nChroma subsampling : 4:2:0\nBit depth : 8 bits\nScan type : Progressive\nBits/(Pixel*Frame) : 0.242\nStream size : 1.03 GiB (86%)\nWriting library : x264 core 140 r2377 1ca7bb9\nDefault : Yes\nForced : No\nColor primaries : BT.709\nTransfer characteristics : BT.709\nMatrix coefficients : BT.709\n\nAudio\nID : 2\nFormat : AC-3\nFormat/Info : Audio Coding 3\nMode extension : CM (complete main)\nFormat settings, Endianness : Big\nCodec ID : A_AC3\nDuration : 1h 45mn\nBit rate mode : Constant\nBit rate : 192 Kbps\nChannel(s) : 2 channels\nChannel positions : Front: L R\nSampling rate : 48.0 KHz\nBit depth : 16 bits\nCompression mode : Lossy\nStream size : 145 MiB (12%)\nDefault : Yes\nForced : No","torrent":{"xt":"urn:btih:f37838d65eb34e9b06748e450844aea6e8754286","amp;dn":"Police+Story+2013+ENG+DUB+HDRIP+x264+AC3+TiTAN","amp;tr":["udp%3A%2F%2Ftracker.openbittorrent.com%3A80","udp%3A%2F%2Fopen.demonii.com%3A1337","udp%3A%2F%2Ftracker.coppersurfer.tk%3A6969","udp%3A%2F%2Fexodus.desync.com%3A6969"],"infoHash":"f37838d65eb34e9b06748e450844aea6e8754286","infoHashBuffer":{"type":"Buffer","data":[243,120,56,214,94,179,78,155,6,116,142,69,8,68,174,166,232,117,66,134]},"announce":[],"urlList":[]}}